<svg version="1.1" xmlns="http://www.w3.org/2000/svg" xlink="http://www.w3.org/1999/xlink" x="0px" y="0px" width="44px" height="50px" viewBox="-1 0 50 50" enable-background="new 0 0 50 50" xml:space="preserve">
                        <g>
                            <path class="hexahedron" fill="none" stroke="#E6E9EC" stroke-width="2px" d="M45.6,33.9c-0.2,2.2-2,5.2-3.7,6.5c-0.1,0-3.3,2.4-7.4,4.8c-4,2.4-7.8,4.1-7.8,4.1C25.8,49.8,24.4,50,23,50
                                c-1.4,0-2.7-0.2-3.7-0.6c-0.1,0-3.7-1.7-7.8-4.1c-4-2.4-7.4-4.8-7.4-4.8c-1.8-1.3-3.4-4.4-3.7-6.5C0.4,33.9,0,29.8,0,25
                                c0-4.8,0.4-8.9,0.4-8.9c0.2-2.2,2-5.2,3.7-6.5c0.1,0,3.3-2.4,7.4-4.8c4-2.4,7.8-4.1,7.8-4.1C20.3,0.2,21.6,0,23,0
                                c1.4,0,2.7,0.2,3.7,0.6c0.1,0,3.7,1.7,7.8,4.1c4,2.4,7.4,4.8,7.4,4.8c1.8,1.3,3.5,4.4,3.7,6.5c0,0.1,0.4,4.1,0.4,8.9
                                C46.1,29.8,45.6,33.9,45.6,33.9z"></path>
                        </g>
                                <g>
                                    <path class="angle" fill="#9EAAB6" d="M20.5,30c-0.2,0-0.4-0.1-0.5-0.2c-0.2-0.3-0.2-0.7,0.1-0.9l4.6-3.9L20,20.6c-0.3-0.3-0.3-0.7,0-0.9
                                c0.3-0.3,0.7-0.3,0.9,0l5.2,4.9c0.1,0.1,0.2,0.3,0.2,0.5c0,0.2-0.1,0.4-0.2,0.5l-5.2,4.3C20.8,30,20.6,30,20.5,30z"></path>
                                </g>
                        </svg>