<svg width="18" height="5" viewBox="0 0 18 5" fill="none" xmlns="http://www.w3.org/2000/svg">
<path fill-rule="evenodd" clip-rule="evenodd" d="M8.02606 1.43311H7.96873V1.49043V1.60509H8.02606V1.49043V1.43311ZM7.73941 1.54776C7.79674 1.54776 7.79674 1.49043 7.79674 1.49043C7.79674 1.43311 7.73941 1.43311 7.73941 1.43311H7.62476V1.60509H7.68208V1.54776L7.73941 1.60509H7.79674L7.73941 1.54776ZM7.73941 1.49043C7.73941 1.49043 7.73941 1.49043 7.68208 1.49043V1.43311C7.73941 1.43311 7.73941 1.49043 7.73941 1.49043ZM8.3127 1.43311H8.25537V1.60509H8.3127C8.3127 1.60509 8.37003 1.60509 8.37003 1.54776C8.37003 1.49043 8.3127 1.43311 8.3127 1.43311ZM8.3127 1.54776H8.25537V1.49043H8.3127V1.54776ZM8.14072 1.43311V1.54776V1.43311H8.08339V1.54776C8.08339 1.60509 8.08339 1.60509 8.14072 1.60509C8.19805 1.60509 8.19805 1.60509 8.19805 1.54776V1.43311H8.14072ZM7.9114 1.43311V1.54776C7.9114 1.54776 7.9114 1.54776 7.85407 1.54776V1.43311H7.79674V1.54776C7.79674 1.60509 7.79674 1.60509 7.85407 1.60509C7.9114 1.60509 7.9114 1.60509 7.9114 1.54776V1.43311ZM8.48469 1.54776C8.48469 1.54776 8.48469 1.60509 8.42736 1.60509V1.54776H8.54202C8.54202 1.49043 8.48469 1.43311 8.42736 1.43311C8.42736 1.43311 8.37003 1.49043 8.37003 1.54776C8.37003 1.60509 8.42736 1.60509 8.42736 1.60509C8.48469 1.60509 8.54202 1.60509 8.54202 1.60509L8.48469 1.54776ZM8.42736 1.54776C8.42736 1.49043 8.42736 1.49043 8.42736 1.49043C8.42736 1.49043 8.48469 1.49043 8.48469 1.54776H8.42736Z" fill="#FEFEFE"/>
<path fill-rule="evenodd" clip-rule="evenodd" d="M7.9114 1.03192V0L6.99414 0.114658V1.03192H6.65016V1.83453H6.99414V4.12769H7.9114V1.83453H8.59935V1.03192H7.9114ZM2.80912 2.52248C3.09577 2.29316 3.26775 1.94919 3.26775 1.54788V1.3759C3.26775 0.687948 2.69446 0.171987 2.00651 0.171987H0V4.07036H0.917264V2.75179H1.89186L2.52248 4.07036H3.66906L2.80912 2.52248ZM2.29316 1.49055C2.29316 1.7772 2.06384 1.94919 1.7772 1.94919H0.917264V1.03192H1.7772C2.06384 1.03192 2.29316 1.20391 2.29316 1.49055ZM13.3577 0.974593H12.899V0L11.9818 0.114658V4.07036H13.3577C14.1029 4.07036 14.6189 3.5544 14.6189 2.86645V2.29316C14.6189 1.54788 14.1029 0.974593 13.3577 0.974593ZM13.759 2.75179C13.759 3.09577 13.5296 3.26775 13.243 3.26775H12.899V1.83453H13.243C13.5296 1.83453 13.759 2.00651 13.759 2.29316V2.75179ZM10.6632 1.03192V2.80912C10.6632 3.09577 10.5485 3.26775 10.2619 3.26775H10.2046C9.91792 3.26775 9.80326 3.09577 9.80326 2.80912V1.03192H8.88599V2.86645C8.88599 3.5544 9.17264 4.12769 10.1472 4.12769H10.3192C11.2938 4.12769 11.5805 3.5544 11.5805 2.86645V1.03192H10.6632ZM5.38893 1.03192V2.80912C5.38893 3.09577 5.27427 3.26775 4.98762 3.26775C4.70098 3.26775 4.58632 3.09577 4.58632 2.80912V1.03192H3.66906V2.86645C3.66906 3.5544 3.9557 4.12769 4.87296 4.12769H5.04495C6.01954 4.12769 6.30619 3.5544 6.30619 2.86645V1.03192H5.38893ZM17.0267 3.03844C17.0267 3.03844 16.7401 3.38241 16.2241 3.32508C15.9375 3.32508 15.7655 3.15309 15.7655 2.86645V2.80912H17.6V2.23583C17.6 1.54788 17.084 0.974593 16.2814 0.974593C15.4215 0.974593 14.9055 1.54788 14.9055 2.23583V2.86645C14.9055 3.5544 15.4215 4.12769 16.2241 4.12769C17.1987 4.12769 17.6 3.43974 17.6 3.43974L17.0267 3.03844ZM15.7655 2.06384C15.7655 1.7772 15.9375 1.60521 16.2241 1.60521H16.2814C16.5107 1.60521 16.7401 1.7772 16.7401 2.06384V2.12117H15.7655V2.06384Z" fill="#A5ADC0"/>
</svg>
