<svg xmlns="http://www.w3.org/2000/svg" viewBox="0 0 127.51 105.19"><defs><style>.cls-1{fill:#adadad;}.cls-2{fill:#fff;}</style></defs><g id="Слой_7" data-name="Слой 7"><path class="cls-1" d="M114.34,152.47,111.65,181s-1.12,8.75,7.63,0,17.12-15.5,17.12-15.5" transform="translate(-64.68 -82.6)"/></g><g id="Слой_5" data-name="Слой 5"><path class="cls-2" d="M96,143.91l-28.79-9.38s-3.44-1.4-2.34-4.56c.23-.66.69-1.21,2.07-2.17,6.38-4.45,118.1-44.61,118.1-44.61s3.15-1.06,5-.35a2.72,2.72,0,0,1,1.85,2,9.19,9.19,0,0,1,.25,2.54c0,.74-.1,1.43-.16,2.5-.69,11-21,92.92-21,92.92s-1.22,4.79-5.59,5a8,8,0,0,1-5.83-2.25c-8.57-7.37-38.17-27.27-44.71-31.64a1.25,1.25,0,0,1-.54-.88c-.09-.46.41-1,.41-1s51.55-45.82,52.92-50.63c.11-.37-.29-.56-.83-.4-3.43,1.26-62.78,38.75-69.33,42.88A3.07,3.07,0,0,1,96,143.91Z" transform="translate(-64.68 -82.6)"/></g></svg>